<svg width="15" height="12" viewBox="0 0 15 12" fill="none" xmlns="http://www.w3.org/2000/svg">
<path d="M10.5015 5.51906e-06C9.91939 -0.000994254 9.3451 0.13385 8.8243 0.393812C8.3035 0.653774 7.85054 1.03168 7.50146 1.49747C7.02869 0.868437 6.37008 0.404001 5.61882 0.169882C4.86756 -0.0642361 4.0617 -0.0561808 3.31528 0.192909C2.56885 0.441998 1.91965 0.919507 1.45955 1.55787C0.999442 2.19623 0.751731 2.96311 0.751465 3.75001C0.751465 8.24143 6.99152 11.7875 7.25714 11.9363C7.33179 11.9781 7.41591 12 7.50146 12C7.58702 12 7.67114 11.9781 7.74579 11.9363C8.89345 11.2641 9.97059 10.4782 10.9609 9.5904C13.1443 7.62531 14.2515 5.66031 14.2515 3.75001C14.2503 2.75579 13.8549 1.80262 13.1519 1.0996C12.4489 0.396582 11.4957 0.00113237 10.5015 5.51906e-06Z" fill="#1DB954"/>
</svg>
